<?xml version="1.0" encoding="UTF-8"?>
<!DOCTYPE svg PUBLIC "-//W3C//DTD SVG 1.1//EN" "http://www.w3.org/Graphics/SVG/1.1/DTD/svg11.dtd">
<svg xmlns="http://www.w3.org/2000/svg" version="1.1" width="500px" height="500px" style="shape-rendering:geometricPrecision; text-rendering:geometricPrecision; image-rendering:optimizeQuality; fill-rule:evenodd; clip-rule:evenodd" xmlns:xlink="http://www.w3.org/1999/xlink">
<g><path style="opacity:0.999" fill="#4aa5d4" d="M 283.5,138.5 C 283.937,140.074 284.937,141.241 286.5,142C 285.906,142.464 285.239,142.631 284.5,142.5C 273.154,144.087 262.154,147.087 251.5,151.5C 249.441,150.433 247.608,149.1 246,147.5C 244.612,140.957 244.446,134.457 245.5,128C 259.281,127.539 271.948,131.039 283.5,138.5 Z"/></g>
<g><path style="opacity:1" fill="#43a3d4" d="M 233.5,156.5 C 228.547,156.123 223.881,156.789 219.5,158.5C 217.94,158.519 216.44,158.852 215,159.5C 212.864,157.541 210.364,156.207 207.5,155.5C 203.163,155.675 200.496,157.842 199.5,162C 196.223,163.143 192.89,163.977 189.5,164.5C 188.761,164.631 188.094,164.464 187.5,164C 188.252,163.329 188.586,162.496 188.5,161.5C 197.484,146.366 210.484,136.199 227.5,131C 231.751,129.805 236.085,129.305 240.5,129.5C 240.334,135.842 240.5,142.175 241,148.5C 241.374,149.416 241.874,150.25 242.5,151C 240.167,152 238.5,153.667 237.5,156C 236.207,156.49 234.873,156.657 233.5,156.5 Z"/></g>
<g><path style="opacity:0.996" fill="#57c5be" d="M 314.5,138.5 C 314.5,139.833 314.5,141.167 314.5,142.5C 314.262,145.148 312.928,146.982 310.5,148C 298.426,149.928 294.26,145.095 298,133.5C 303.127,128.619 308.127,128.619 313,133.5C 314.009,135.025 314.509,136.692 314.5,138.5 Z"/></g>
<g><path style="opacity:0.014" fill="#f0f0eb" d="M 314.5,138.5 C 316.274,139.37 317.607,140.703 318.5,142.5C 318.5,143.167 318.833,143.5 319.5,143.5C 319.5,143.833 319.5,144.167 319.5,144.5C 317.716,144.107 316.05,143.441 314.5,142.5C 314.5,141.167 314.5,139.833 314.5,138.5 Z"/></g>
<g><path style="opacity:0.894" fill="#bbd7e4" d="M 283.5,138.5 C 285.487,139.164 287.154,140.331 288.5,142C 287.182,143.63 285.849,143.797 284.5,142.5C 285.239,142.631 285.906,142.464 286.5,142C 284.937,141.241 283.937,140.074 283.5,138.5 Z"/></g>
<g><path style="opacity:0.678" fill="#c3e4de" d="M 323.5,142.5 C 322.167,142.5 321.5,143.167 321.5,144.5C 321.167,144.5 320.833,144.5 320.5,144.5C 320.5,143.833 320.167,143.5 319.5,143.5C 318.833,143.5 318.5,143.167 318.5,142.5C 318.351,141.448 318.517,140.448 319,139.5C 320.652,140.399 322.152,141.399 323.5,142.5 Z"/></g>
<g><path style="opacity:0.999" fill="#4fc3bc" d="M 323.5,142.5 C 339.839,150.353 343.672,162.353 335,178.5C 320.563,198.484 301.73,212.817 278.5,221.5C 277.508,221.328 276.842,221.662 276.5,222.5C 275.29,222.932 274.29,223.599 273.5,224.5C 274.833,224.5 276.167,224.5 277.5,224.5C 278.492,224.672 279.158,224.338 279.5,223.5C 288.455,221.293 297.122,218.293 305.5,214.5C 307.827,214.753 309.827,214.086 311.5,212.5C 312.386,213.325 312.719,214.325 312.5,215.5C 302.361,243.129 282.695,259.296 253.5,264C 228.908,265.699 208.908,257.032 193.5,238C 186.801,237.639 180.135,236.972 173.5,236C 169.167,235.512 165.167,234.345 161.5,232.5C 168.167,231.833 174.833,231.167 181.5,230.5C 182.833,230.5 184.167,230.5 185.5,230.5C 191.216,230.773 196.549,229.773 201.5,227.5C 212.895,225.22 224.229,222.553 235.5,219.5C 240.079,219.53 244.079,218.196 247.5,215.5C 270.546,207.31 291.546,195.477 310.5,180C 316.325,174.185 320.491,167.352 323,159.5C 323.818,154.349 323.318,149.349 321.5,144.5C 321.5,143.167 322.167,142.5 323.5,142.5 Z M 276.5,222.5 C 277.338,222.842 277.672,223.508 277.5,224.5C 276.167,224.5 274.833,224.5 273.5,224.5C 274.29,223.599 275.29,222.932 276.5,222.5 Z"/></g>
<g><path style="opacity:0.008" fill="#f1f1eb" d="M 319.5,144.5 C 319.833,144.5 320.167,144.5 320.5,144.5C 320.315,145.17 319.981,145.17 319.5,144.5 Z"/></g>
<g><path style="opacity:0.999" fill="#49a5d4" d="M 253.5,156.5 C 256.068,155.044 258.734,153.711 261.5,152.5C 261.833,152.5 262.167,152.5 262.5,152.5C 265.152,152.59 267.485,151.924 269.5,150.5C 276.577,148.421 283.91,147.587 291.5,148C 300.268,155.715 305.768,165.215 308,176.5C 307.311,177.357 306.478,178.023 305.5,178.5C 289.922,167.083 272.588,159.75 253.5,156.5 Z"/></g>
<g><path style="opacity:0.753" fill="#a2cde1" d="M 269.5,150.5 C 267.485,151.924 265.152,152.59 262.5,152.5C 264.515,151.076 266.848,150.41 269.5,150.5 Z"/></g>
<g><path style="opacity:0.028" fill="#d4e3e7" d="M 261.5,152.5 C 258.734,153.711 256.068,155.044 253.5,156.5C 251.158,156.225 251.158,155.392 253.5,154C 256.168,153.433 258.834,152.933 261.5,152.5 Z"/></g>
<g><path style="opacity:0.024" fill="#d8e5e8" d="M 233.5,156.5 C 229.02,157.521 224.353,158.187 219.5,158.5C 223.881,156.789 228.547,156.123 233.5,156.5 Z"/></g>
<g><path style="opacity:0.243" fill="#c9e0e6" d="M 227.5,160.5 C 230.024,159.2 232.691,159.2 235.5,160.5C 235.376,161.107 235.043,161.44 234.5,161.5C 232.393,160.532 230.059,160.198 227.5,160.5 Z"/></g>
<g><path style="opacity:1" fill="#40a2d3" d="M 227.5,160.5 C 230.059,160.198 232.393,160.532 234.5,161.5C 234.631,162.239 234.464,162.906 234,163.5C 213.856,179.777 198.522,199.777 188,223.5C 186.959,225.585 185.459,227.252 183.5,228.5C 178.446,219.269 175.779,209.269 175.5,198.5C 175.893,194.408 176.56,190.408 177.5,186.5C 178.924,184.485 179.59,182.152 179.5,179.5C 179.523,177.073 180.023,174.74 181,172.5C 183.45,171.358 185.95,170.358 188.5,169.5C 192.347,169.106 196.014,168.106 199.5,166.5C 205.961,170.184 210.627,168.684 213.5,162C 218.085,160.775 222.752,160.275 227.5,160.5 Z"/></g>
<g><path style="opacity:1" fill="#42a3d4" d="M 302.5,179.5 C 302.443,180.609 302.11,181.609 301.5,182.5C 298.264,185.797 294.597,188.63 290.5,191C 282.167,195.5 273.833,200 265.5,204.5C 262.176,199.86 259.343,194.86 257,189.5C 254.167,181.833 251.333,174.167 248.5,166.5C 249.845,163.324 252.012,160.991 255,159.5C 272.294,162.978 288.128,169.645 302.5,179.5 Z"/></g>
<g><path style="opacity:0.086" fill="#d0e2e7" d="M 188.5,161.5 C 188.586,162.496 188.252,163.329 187.5,164C 188.094,164.464 188.761,164.631 189.5,164.5C 188.791,165.404 187.791,165.737 186.5,165.5C 186.229,163.62 186.896,162.287 188.5,161.5 Z"/></g>
<g><path style="opacity:1" fill="#3ca1d3" d="M 201.5,223.5 C 198.615,223.806 195.948,223.473 193.5,222.5C 193.328,221.508 193.662,220.842 194.5,220.5C 195.906,220.027 196.573,219.027 196.5,217.5C 204.106,202.611 213.439,188.944 224.5,176.5C 227.764,174.906 230.431,172.573 232.5,169.5C 233.838,167.33 235.672,165.664 238,164.5C 240.235,166.202 242.735,167.202 245.5,167.5C 246.356,171.57 247.523,175.57 249,179.5C 252.805,188.76 256.805,197.76 261,206.5C 241.782,214.294 221.949,219.961 201.5,223.5 Z"/></g>
<g><path style="opacity:0.835" fill="#9dcae0" d="M 199.5,166.5 C 196.014,168.106 192.347,169.106 188.5,169.5C 191.6,167.877 194.933,166.543 198.5,165.5C 199.107,165.624 199.44,165.957 199.5,166.5 Z"/></g>
<g><path style="opacity:0.635" fill="#9ecce0" d="M 232.5,169.5 C 230.431,172.573 227.764,174.906 224.5,176.5C 226.569,173.427 229.236,171.094 232.5,169.5 Z"/></g>
<g><path style="opacity:0.008" fill="#e5ebea" d="M 302.5,179.5 C 303.885,180.947 303.552,181.947 301.5,182.5C 302.11,181.609 302.443,180.609 302.5,179.5 Z"/></g>
<g><path style="opacity:0.537" fill="#a5cfe1" d="M 179.5,179.5 C 179.59,182.152 178.924,184.485 177.5,186.5C 177.41,183.848 178.076,181.515 179.5,179.5 Z"/></g>
<g><path style="opacity:0.549" fill="#b9e1da" d="M 312.5,215.5 C 312.719,214.325 312.386,213.325 311.5,212.5C 309.827,214.086 307.827,214.753 305.5,214.5C 307.774,213.263 310.107,211.929 312.5,210.5C 313.788,212.299 313.788,213.965 312.5,215.5 Z"/></g>
<g><path style="opacity:0.792" fill="#9fd9d3" d="M 247.5,215.5 C 244.079,218.196 240.079,219.53 235.5,219.5C 239.341,217.997 243.341,216.664 247.5,215.5 Z"/></g>
<g><path style="opacity:0.169" fill="#d0e2e7" d="M 196.5,217.5 C 196.573,219.027 195.906,220.027 194.5,220.5C 194.427,218.973 195.094,217.973 196.5,217.5 Z"/></g>
<g><path style="opacity:0.014" fill="#edefea" d="M 276.5,222.5 C 276.842,221.662 277.508,221.328 278.5,221.5C 278.328,222.492 278.662,223.158 279.5,223.5C 279.158,224.338 278.492,224.672 277.5,224.5C 277.672,223.508 277.338,222.842 276.5,222.5 Z"/></g>
<g><path style="opacity:0.537" fill="#b8d8e4" d="M 193.5,222.5 C 195.948,223.473 198.615,223.806 201.5,223.5C 198.645,224.803 195.645,224.803 192.5,223.5C 192.624,222.893 192.957,222.56 193.5,222.5 Z"/></g>
<g><path style="opacity:0.076" fill="#cce6e0" d="M 271.5,224.5 C 271.38,225.586 270.713,226.253 269.5,226.5C 267.199,227.396 264.866,227.562 262.5,227C 265.432,225.855 268.432,225.022 271.5,224.5 Z"/></g>
<g><path style="opacity:0.773" fill="#b0ded8" d="M 201.5,227.5 C 196.549,229.773 191.216,230.773 185.5,230.5C 190.63,229.087 195.963,228.087 201.5,227.5 Z"/></g>
<g><path style="opacity:0.014" fill="#e7eee9" d="M 181.5,230.5 C 174.833,231.167 168.167,231.833 161.5,232.5C 159.621,232.607 159.288,232.107 160.5,231C 167.492,230.5 174.492,230.334 181.5,230.5 Z"/></g>
<g><path style="opacity:0.71" fill="#adb8bb" d="M 334.5,295.5 C 329.729,293.405 328.062,294.738 329.5,299.5C 327.255,298.172 326.922,296.339 328.5,294C 331.299,291.664 333.299,292.164 334.5,295.5 Z"/></g>
<g><path style="opacity:0.999" fill="#204557" d="M 334.5,295.5 C 334.616,298.91 332.95,300.244 329.5,299.5C 328.062,294.738 329.729,293.405 334.5,295.5 Z"/></g>
<g><path style="opacity:1" fill="#425e6d" d="M 135.5,300.5 C 135.5,301.5 135.5,302.5 135.5,303.5C 133.833,303.5 132.167,303.5 130.5,303.5C 128.789,299.425 126.289,298.759 123,301.5C 122.333,305.833 122.333,310.167 123,314.5C 124.699,315.406 126.533,315.739 128.5,315.5C 130.048,315.179 130.715,314.179 130.5,312.5C 132.781,312.077 134.448,312.744 135.5,314.5C 134.624,319.361 131.624,321.694 126.5,321.5C 118.4,320.564 115.067,316.064 116.5,308C 115.375,296.453 120.375,292.12 131.5,295C 133.928,296.018 135.262,297.852 135.5,300.5 Z"/></g>
<g><path style="opacity:1" fill="#25495a" d="M 160.5,320.5 C 159.508,312.684 159.174,304.684 159.5,296.5C 160.919,295.549 162.585,295.216 164.5,295.5C 164.5,303.833 164.5,312.167 164.5,320.5C 163.167,320.5 161.833,320.5 160.5,320.5 Z"/></g>
<g><path style="opacity:0.398" fill="#a6b2b6" d="M 160.5,320.5 C 161.833,320.5 163.167,320.5 164.5,320.5C 164.5,312.167 164.5,303.833 164.5,295.5C 162.585,295.216 160.919,295.549 159.5,296.5C 158.957,296.44 158.624,296.107 158.5,295.5C 160.743,294.526 163.076,294.192 165.5,294.5C 165.5,303.5 165.5,312.5 165.5,321.5C 163.585,321.784 161.919,321.451 160.5,320.5 Z"/></g>
<g><path style="opacity:0.779" fill="#536f7b" d="M 173.5,294.5 C 173.5,294.833 173.5,295.167 173.5,295.5C 172.167,295.5 170.833,295.5 169.5,295.5C 169.5,303.833 169.5,312.167 169.5,320.5C 168.513,315.695 168.179,310.695 168.5,305.5C 168.5,304.167 168.5,302.833 168.5,301.5C 168.5,299.167 168.5,296.833 168.5,294.5C 170.167,294.5 171.833,294.5 173.5,294.5 Z"/></g>
<g><path style="opacity:1" fill="#1d4355" d="M 173.5,295.5 C 173.5,303.833 173.5,312.167 173.5,320.5C 172.167,320.5 170.833,320.5 169.5,320.5C 169.5,312.167 169.5,303.833 169.5,295.5C 170.833,295.5 172.167,295.5 173.5,295.5 Z"/></g>
<g><path style="opacity:0.388" fill="#acb8ba" d="M 173.5,294.5 C 174.658,303.657 174.824,312.991 174,322.5C 172.378,321.901 170.878,321.234 169.5,320.5C 170.833,320.5 172.167,320.5 173.5,320.5C 173.5,312.167 173.5,303.833 173.5,295.5C 173.5,295.167 173.5,294.833 173.5,294.5 Z"/></g>
<g><path style="opacity:0.525" fill="#82959c" d="M 260.5,295.5 C 255.833,295.5 251.167,295.5 246.5,295.5C 246.5,303.833 246.5,312.167 246.5,320.5C 245.507,312.016 245.174,303.349 245.5,294.5C 250.695,294.179 255.695,294.513 260.5,295.5 Z"/></g>
<g><path style="opacity:1" fill="#3b5968" d="M 260.5,295.5 C 262.017,295.511 263.184,296.177 264,297.5C 265.004,300.993 264.504,304.159 262.5,307C 267.327,314.009 265.661,318.676 257.5,321C 253.642,321.81 249.976,321.643 246.5,320.5C 246.5,312.167 246.5,303.833 246.5,295.5C 251.167,295.5 255.833,295.5 260.5,295.5 Z M 252.5,299.5 C 255.056,299.132 257.056,299.966 258.5,302C 258.355,302.772 258.022,303.439 257.5,304C 255.527,304.495 253.527,304.662 251.5,304.5C 251.366,302.708 251.699,301.042 252.5,299.5 Z M 258.5,310.5 C 258.634,312.292 258.301,313.958 257.5,315.5C 255.5,315.5 253.5,315.5 251.5,315.5C 251.5,313.833 251.5,312.167 251.5,310.5C 253.833,310.5 256.167,310.5 258.5,310.5 Z"/></g>
<g><path style="opacity:0.999" fill="#3a5968" d="M 315.5,306.5 C 316.974,305.564 317.974,304.23 318.5,302.5C 318.842,301.662 319.508,301.328 320.5,301.5C 323.567,301.121 324.567,302.121 323.5,304.5C 322.711,305.915 322.044,307.415 321.5,309C 322.984,312.13 324.317,315.297 325.5,318.5C 324.448,320.256 322.781,320.923 320.5,320.5C 319.463,319.07 318.796,317.403 318.5,315.5C 318.672,314.508 318.338,313.842 317.5,313.5C 317.214,311.067 316.548,311.067 315.5,313.5C 315.5,313.833 315.5,314.167 315.5,314.5C 314.784,316.556 314.117,318.723 313.5,321C 311.888,321.72 310.388,321.554 309,320.5C 308.5,311.84 308.334,303.173 308.5,294.5C 310.5,294.5 312.5,294.5 314.5,294.5C 314.183,298.702 314.517,302.702 315.5,306.5 Z"/></g>
<g><path style="opacity:0.004" fill="#f1f1eb" d="M 315.5,295.5 C 316.573,296.251 316.74,297.251 316,298.5C 315.517,297.552 315.351,296.552 315.5,295.5 Z"/></g>
<g><path style="opacity:0.008" fill="#e4e6e2" d="M 334.5,295.5 C 336.916,297.295 336.916,299.295 334.5,301.5C 333.833,301.5 333.167,301.5 332.5,301.5C 332.167,300.167 331.833,300.167 331.5,301.5C 331.167,301.5 330.833,301.5 330.5,301.5C 330.167,300.833 329.833,300.167 329.5,299.5C 332.95,300.244 334.616,298.91 334.5,295.5 Z"/></g>
<g><path style="opacity:0.005" fill="#f1f1eb" d="M 168.5,301.5 C 168.5,302.833 168.5,304.167 168.5,305.5C 167.676,309.312 167.176,313.312 167,317.5C 166.333,311.833 166.333,306.167 167,300.5C 167.383,301.056 167.883,301.389 168.5,301.5 Z"/></g>
<g><path style="opacity:0.01" fill="#dbdedc" d="M 318.5,302.5 C 317.974,304.23 316.974,305.564 315.5,306.5C 316.18,304.61 316.347,302.61 316,300.5C 316.708,301.381 317.542,302.047 318.5,302.5 Z"/></g>
<g><path style="opacity:0.005" fill="#eaeae6" d="M 320.5,301.5 C 323.167,300.167 325.833,300.167 328.5,301.5C 328.5,301.833 328.5,302.167 328.5,302.5C 326.678,302.831 325.011,303.498 323.5,304.5C 324.567,302.121 323.567,301.121 320.5,301.5 Z"/></g>
<g><path style="opacity:1" fill="#405d6c" d="M 145.5,300.5 C 154.863,301.193 158.363,306.193 156,315.5C 153.647,320.426 149.814,322.26 144.5,321C 138.891,317.723 137.058,312.89 139,306.5C 140.436,303.558 142.603,301.558 145.5,300.5 Z M 145.5,306.5 C 147.514,306.392 149.18,307.058 150.5,308.5C 150.682,310.591 150.348,312.591 149.5,314.5C 148.277,315.614 146.944,315.781 145.5,315C 144.321,312.204 144.321,309.371 145.5,306.5 Z"/></g>
<g><path style="opacity:0.997" fill="#3c5a69" d="M 191.5,302.5 C 191.427,304.027 192.094,305.027 193.5,305.5C 194.434,306.568 194.768,307.901 194.5,309.5C 194.5,310.5 194.5,311.5 194.5,312.5C 190.445,312.176 186.445,312.509 182.5,313.5C 182.624,314.107 182.957,314.44 183.5,314.5C 183.97,315.693 184.97,316.36 186.5,316.5C 187.726,316.48 188.726,316.147 189.5,315.5C 190.5,315.5 191.5,315.5 192.5,315.5C 194.466,316.255 194.8,317.421 193.5,319C 183.789,323.645 178.123,320.645 176.5,310C 177.08,303.92 180.413,300.753 186.5,300.5C 188.557,300.436 190.223,301.102 191.5,302.5 Z M 187.5,306.5 C 187.611,307.117 187.944,307.617 188.5,308C 186.613,308.78 184.946,308.613 183.5,307.5C 184.708,306.766 186.041,306.433 187.5,306.5 Z"/></g>
<g><path style="opacity:0.999" fill="#4a6573" d="M 208.5,321.5 C 209.573,320.749 209.74,319.749 209,318.5C 206.619,319.435 204.119,319.768 201.5,319.5C 198.812,318.976 197.312,317.309 197,314.5C 195.142,308.419 196.975,303.919 202.5,301C 206.5,301.667 210.5,301.667 214.5,301C 215.836,308.811 215.67,316.644 214,324.5C 210.18,328.001 205.847,329.001 201,327.5C 200.333,326.167 200.333,324.833 201,323.5C 203.436,322.645 205.936,321.979 208.5,321.5 Z M 204.5,306.5 C 205.822,306.33 206.989,306.663 208,307.5C 208.667,309.833 208.667,312.167 208,314.5C 206.667,315.833 205.333,315.833 204,314.5C 203.278,311.739 203.445,309.073 204.5,306.5 Z"/></g>
<g><path style="opacity:0.998" fill="#395867" d="M 234.5,307.5 C 234.5,309.167 234.5,310.833 234.5,312.5C 230.629,312.185 226.962,312.518 223.5,313.5C 224.99,315.28 226.99,315.946 229.5,315.5C 231.973,315.088 233.306,316.088 233.5,318.5C 230.739,321.136 227.406,321.969 223.5,321C 220.921,319.924 219.254,318.091 218.5,315.5C 218.5,312.5 218.5,309.5 218.5,306.5C 219.765,302.444 222.598,300.444 227,300.5C 231.285,300.952 233.785,303.285 234.5,307.5 Z M 227.5,306.5 C 227.611,307.117 227.944,307.617 228.5,308C 226.866,308.494 225.199,308.66 223.5,308.5C 224.287,306.896 225.62,306.229 227.5,306.5 Z"/></g>
<g><path style="opacity:1" fill="#435f6e" d="M 274.5,300.5 C 284.456,301.325 287.956,306.659 285,316.5C 278.926,323.286 273.259,322.953 268,315.5C 265.885,308.414 268.051,303.414 274.5,300.5 Z M 275.5,306.5 C 276.822,306.33 277.989,306.663 279,307.5C 279.667,309.833 279.667,312.167 279,314.5C 275.718,315.911 273.884,314.745 273.5,311C 273.519,309.167 274.185,307.667 275.5,306.5 Z"/></g>
<g><path style="opacity:1" fill="#425e6d" d="M 294.5,300.5 C 301.972,300.065 305.972,303.565 306.5,311C 304.481,321.227 298.981,323.727 290,318.5C 285.673,310.865 287.173,304.865 294.5,300.5 Z M 299.5,308.5 C 298.167,310.5 298.167,312.5 299.5,314.5C 297.833,315.833 296.167,315.833 294.5,314.5C 292.832,311.007 293.665,308.34 297,306.5C 298.301,306.639 299.134,307.305 299.5,308.5 Z"/></g>
<g><path style="opacity:0.827" fill="#7c8f97" d="M 345.5,301.5 C 345.189,302.478 344.522,303.145 343.5,303.5C 341.929,302.691 340.262,302.357 338.5,302.5C 338.5,302.167 338.5,301.833 338.5,301.5C 340.554,300.77 342.888,300.77 345.5,301.5 Z"/></g>
<g><path style="opacity:0.997" fill="#315162" d="M 352.5,302.5 C 352.427,304.027 353.094,305.027 354.5,305.5C 354.828,310.875 354.495,316.208 353.5,321.5C 352.095,321.24 350.762,320.907 349.5,320.5C 350.103,315.381 349.436,310.715 347.5,306.5C 345.821,306.285 344.821,306.952 344.5,308.5C 343.676,312.312 343.176,316.312 343,320.5C 341.384,321.801 339.884,321.801 338.5,320.5C 338.5,314.5 338.5,308.5 338.5,302.5C 340.262,302.357 341.929,302.691 343.5,303.5C 344.522,303.145 345.189,302.478 345.5,301.5C 348.012,300.133 350.345,300.466 352.5,302.5 Z"/></g>
<g><path style="opacity:1" fill="#315162" d="M 370.5,301.5 C 371.833,301.5 373.167,301.5 374.5,301.5C 374.5,308.167 374.5,314.833 374.5,321.5C 374.167,325.167 372.167,327.167 368.5,327.5C 366.167,327.5 363.833,327.5 361.5,327.5C 361.5,326.167 361.5,324.833 361.5,323.5C 363.265,322.539 365.265,322.205 367.5,322.5C 369.048,322.179 369.715,321.179 369.5,319.5C 366.833,319.5 364.167,319.5 361.5,319.5C 361.027,318.094 360.027,317.427 358.5,317.5C 357.793,314.214 357.46,310.881 357.5,307.5C 357.5,307.167 357.5,306.833 357.5,306.5C 358.906,306.027 359.573,305.027 359.5,303.5C 362.629,300.473 366.296,299.807 370.5,301.5 Z M 364.5,306.5 C 365.5,306.5 366.5,306.5 367.5,306.5C 367.932,307.71 368.599,308.71 369.5,309.5C 369.5,310.5 369.5,311.5 369.5,312.5C 368.599,313.29 367.932,314.29 367.5,315.5C 366.178,315.67 365.011,315.337 364,314.5C 363.505,312.527 363.338,310.527 363.5,308.5C 364.302,309.952 364.802,311.618 365,313.5C 365.703,311.071 365.537,308.738 364.5,306.5 Z"/></g>
<g><path style="opacity:0.999" fill="#3f5d6b" d="M 328.5,301.5 C 329.167,301.5 329.833,301.5 330.5,301.5C 330.833,301.5 331.167,301.5 331.5,301.5C 331.833,301.5 332.167,301.5 332.5,301.5C 333.167,301.5 333.833,301.5 334.5,301.5C 334.666,307.842 334.5,314.175 334,320.5C 332.333,321.833 330.667,321.833 329,320.5C 328.501,314.509 328.334,308.509 328.5,302.5C 328.5,302.167 328.5,301.833 328.5,301.5 Z"/></g>
<g><path style="opacity:0.344" fill="#b7c1c2" d="M 338.5,301.5 C 338.5,301.833 338.5,302.167 338.5,302.5C 338.5,308.5 338.5,314.5 338.5,320.5C 337.936,316.992 336.936,313.492 335.5,310C 336.871,307.176 337.871,304.343 338.5,301.5 Z"/></g>
<g><path style="opacity:0.34" fill="#bbc4c5" d="M 370.5,301.5 C 372.517,300.126 374.517,300.293 376.5,302C 375.85,308.599 375.184,315.099 374.5,321.5C 374.5,314.833 374.5,308.167 374.5,301.5C 373.167,301.5 371.833,301.5 370.5,301.5 Z"/></g>
<g><path style="opacity:0.014" fill="#e3e5e2" d="M 135.5,300.5 C 136.434,301.568 136.768,302.901 136.5,304.5C 134.265,304.795 132.265,304.461 130.5,303.5C 132.167,303.5 133.833,303.5 135.5,303.5C 135.5,302.5 135.5,301.5 135.5,300.5 Z"/></g>
<g><path style="opacity:0.463" fill="#9fadb1" d="M 191.5,302.5 C 192.906,302.973 193.573,303.973 193.5,305.5C 192.094,305.027 191.427,304.027 191.5,302.5 Z"/></g>
<g><path style="opacity:0.396" fill="#9fadb1" d="M 352.5,302.5 C 353.906,302.973 354.573,303.973 354.5,305.5C 353.094,305.027 352.427,304.027 352.5,302.5 Z"/></g>
<g><path style="opacity:0.388" fill="#9cabaf" d="M 145.5,306.5 C 146.601,305.402 147.934,305.235 149.5,306C 150.252,306.671 150.586,307.504 150.5,308.5C 149.18,307.058 147.514,306.392 145.5,306.5 Z"/></g>
<g><path style="opacity:0.122" fill="#c6cdcc" d="M 359.5,303.5 C 359.573,305.027 358.906,306.027 357.5,306.5C 357.427,304.973 358.094,303.973 359.5,303.5 Z"/></g>
<g><path style="opacity:0.009" fill="#eeeee9" d="M 357.5,307.5 C 357.46,310.881 357.793,314.214 358.5,317.5C 356.068,321.721 355.068,321.221 355.5,316C 355.489,312.884 356.155,310.051 357.5,307.5 Z"/></g>
<g><path style="opacity:0.008" fill="#e7e8e4" d="M 364.5,306.5 C 365.537,308.738 365.703,311.071 365,313.5C 364.802,311.618 364.302,309.952 363.5,308.5C 363.328,307.508 363.662,306.842 364.5,306.5 Z"/></g>
<g><path style="opacity:0.486" fill="#8d9ea4" d="M 187.5,306.5 C 189.048,306.821 189.715,307.821 189.5,309.5C 187.076,309.808 184.743,309.474 182.5,308.5C 182.624,307.893 182.957,307.56 183.5,307.5C 184.946,308.613 186.613,308.78 188.5,308C 187.944,307.617 187.611,307.117 187.5,306.5 Z"/></g>
<g><path style="opacity:0.379" fill="#a2afb3" d="M 227.5,306.5 C 229.048,306.821 229.715,307.821 229.5,309.5C 227.265,309.795 225.265,309.461 223.5,308.5C 225.265,309.461 227.265,309.795 229.5,309.5C 229.715,307.821 229.048,306.821 227.5,306.5 Z"/></g>
<g><path style="opacity:0.006" fill="#f1f1eb" d="M 344.5,308.5 C 345.645,312.311 345.812,316.311 345,320.5C 344.501,316.514 344.334,312.514 344.5,308.5 Z"/></g>
<g><path style="opacity:0.008" fill="#c2caca" d="M 367.5,306.5 C 369.048,306.821 369.715,307.821 369.5,309.5C 368.599,308.71 367.932,307.71 367.5,306.5 Z"/></g>
<g><path style="opacity:0.706" fill="#99a8ac" d="M 218.5,306.5 C 218.5,309.5 218.5,312.5 218.5,315.5C 215.983,312.461 215.983,309.461 218.5,306.5 Z"/></g>
<g><path style="opacity:0.174" fill="#c4cbcb" d="M 347.5,306.5 C 349.436,310.715 350.103,315.381 349.5,320.5C 348.784,315.936 348.117,311.269 347.5,306.5 Z"/></g>
<g><path style="opacity:0.012" fill="#dfe2df" d="M 299.5,308.5 C 300.833,310.5 300.833,312.5 299.5,314.5C 298.167,312.5 298.167,310.5 299.5,308.5 Z"/></g>
<g><path style="opacity:0.004" fill="#f1f1eb" d="M 326.5,310.5 C 327.525,310.897 327.692,311.563 327,312.5C 326.536,311.906 326.369,311.239 326.5,310.5 Z"/></g>
<g><path style="opacity:0.604" fill="#8799a0" d="M 135.5,314.5 C 134.448,312.744 132.781,312.077 130.5,312.5C 130.715,314.179 130.048,315.179 128.5,315.5C 129.234,314.292 129.567,312.959 129.5,311.5C 131.833,311.5 134.167,311.5 136.5,311.5C 136.737,312.791 136.404,313.791 135.5,314.5 Z"/></g>
<g><path style="opacity:0.25" fill="#bfc7c8" d="M 194.5,309.5 C 195.434,310.568 195.768,311.901 195.5,313.5C 194.127,313.343 192.793,313.51 191.5,314C 192.056,314.383 192.389,314.883 192.5,315.5C 191.5,315.5 190.5,315.5 189.5,315.5C 190.463,314.637 190.463,313.97 189.5,313.5C 187.929,314.309 186.262,314.643 184.5,314.5C 184.167,313.167 183.833,313.167 183.5,314.5C 182.957,314.44 182.624,314.107 182.5,313.5C 186.445,312.509 190.445,312.176 194.5,312.5C 194.5,311.5 194.5,310.5 194.5,309.5 Z"/></g>
<g><path style="opacity:0.249" fill="#c5cccc" d="M 234.5,307.5 C 235.629,309.628 235.796,311.961 235,314.5C 231.17,314.002 227.337,313.669 223.5,313.5C 226.962,312.518 230.629,312.185 234.5,312.5C 234.5,310.833 234.5,309.167 234.5,307.5 Z"/></g>
<g><path style="opacity:0.02" fill="#d1d6d4" d="M 317.5,313.5 C 316.833,313.5 316.167,313.5 315.5,313.5C 316.548,311.067 317.214,311.067 317.5,313.5 Z"/></g>
<g><path style="opacity:0.231" fill="#afbabd" d="M 258.5,310.5 C 259.139,311.097 259.472,311.93 259.5,313C 259.316,314.376 258.649,315.209 257.5,315.5C 258.649,315.209 259.316,314.376 259.5,313C 259.472,311.93 259.139,311.097 258.5,310.5 Z"/></g>
<g><path style="opacity:0.725" fill="#9caaaf" d="M 229.5,315.5 C 230.601,314.402 231.934,314.235 233.5,315C 234.791,316.292 234.791,317.458 233.5,318.5C 233.306,316.088 231.973,315.088 229.5,315.5 Z"/></g>
<g><path style="opacity:0.007" fill="#eaeae6" d="M 317.5,313.5 C 318.338,313.842 318.672,314.508 318.5,315.5C 316.674,320.907 315.674,320.574 315.5,314.5C 316.492,314.672 317.158,314.338 317.5,313.5 Z"/></g>
<g><path style="opacity:0.722" fill="#a1aeb2" d="M 369.5,312.5 C 369.715,314.179 369.048,315.179 367.5,315.5C 367.932,314.29 368.599,313.29 369.5,312.5 Z"/></g>
<g><path style="opacity:0.082" fill="#abb7ba" d="M 183.5,314.5 C 183.833,314.5 184.167,314.5 184.5,314.5C 185.919,315.451 187.585,315.784 189.5,315.5C 188.726,316.147 187.726,316.48 186.5,316.5C 184.97,316.36 183.97,315.693 183.5,314.5 Z"/></g>
<g><path style="opacity:0.188" fill="#9ba9ae" d="M 294.5,314.5 C 296.167,315.833 297.833,315.833 299.5,314.5C 299.209,315.649 298.376,316.316 297,316.5C 295.624,316.316 294.791,315.649 294.5,314.5 Z"/></g>
<g><path style="opacity:0.004" fill="#f1f1eb" d="M 326.5,316.5 C 327.833,317.167 327.833,317.167 326.5,316.5 Z"/></g>
<g><path style="opacity:0.773" fill="#94a4aa" d="M 358.5,317.5 C 360.027,317.427 361.027,318.094 361.5,319.5C 359.973,319.573 358.973,318.906 358.5,317.5 Z"/></g>
<g><path style="opacity:0.231" fill="#99a8ad" d="M 208.5,321.5 C 206.167,320.833 203.833,320.167 201.5,319.5C 204.119,319.768 206.619,319.435 209,318.5C 209.74,319.749 209.573,320.749 208.5,321.5 Z"/></g>
<g><path style="opacity:0.675" fill="#8b9ca3" d="M 361.5,319.5 C 364.167,319.5 366.833,319.5 369.5,319.5C 369.715,321.179 369.048,322.179 367.5,322.5C 367.611,321.883 367.944,321.383 368.5,321C 365.964,320.814 363.631,320.314 361.5,319.5 Z"/></g>
<g><path style="opacity:0.008" fill="#e6e7e3" d="M 325.5,318.5 C 326.404,319.209 326.737,320.209 326.5,321.5C 324.265,321.795 322.265,321.461 320.5,320.5C 322.781,320.923 324.448,320.256 325.5,318.5 Z"/></g>
<g><path style="opacity:0.007" fill="#e9e9e5" d="M 361.5,323.5 C 361.5,324.833 361.5,326.167 361.5,327.5C 363.833,327.5 366.167,327.5 368.5,327.5C 365.645,328.803 362.645,328.803 359.5,327.5C 359.994,325.974 360.661,324.641 361.5,323.5 Z"/></g>
</svg>
